<svg width="120" height="126" viewBox="0 0 120 126" fill="none" xmlns="http://www.w3.org/2000/svg">
<path d="M80.2241 109.69C112.06 94.6953 105.6 50.2457 105.6 37.8467" stroke="#C95433" stroke-width="5"/>
<path d="M12.3999 47.9826C52.8175 -11.994 83.4509 26.1787 98.3999 49.2466" stroke="#C95433" stroke-width="5"/>
<path d="M98.6001 47.2466C58.1825 107.223 27.5491 69.1146 12.6001 46.0467" stroke="#C95433" stroke-width="5"/>
<path d="M43.1283 78.5477C48.665 113.15 66.936 113.726 69.7043 120.647C106.246 85.4681 92.4046 75.0875 92.4046 69.8972M20.9817 36.4486C20.9817 24.9147 20.9817 7.61374 30.394 3" stroke="#C95433" stroke-width="5"/>
<path d="M89.6362 36.4486C89.6362 24.9147 89.6362 7.61374 80.2239 3" stroke="#C95433" stroke-width="5"/>
<path d="M28 3.04688C33.6282 11.5713 41.6301 16.2688 39.1287 20.2469" stroke="#C95433" stroke-width="5"/>
<path d="M82.2 3.84668C77.4588 12.8467 70.3194 16.8467 72.4266 21.0467" stroke="#C95433" stroke-width="5"/>
<line x1="96.3757" y1="36.2555" x2="107.603" y2="36.1467" stroke="#C95433" stroke-width="5"/>
<path d="M70.2579 50.5781C70.2579 52.0113 69.1424 53.1732 67.7664 53.1732C66.3904 53.1732 65.2749 52.0113 65.2749 50.5781C65.2749 49.1448 66.3904 47.9829 67.7664 47.9829C69.1424 47.9829 70.2579 49.1448 70.2579 50.5781Z" fill="#C95433" fill-opacity="0.9"/>
<ellipse cx="41.1907" cy="50.5781" rx="2.4915" ry="2.59515" fill="#C95433" fill-opacity="0.9"/>
<rect width="4.75014" height="4.45257" transform="matrix(0.692554 -0.721366 0.692554 0.721366 52.5022 61.0234)" fill="#C95433" fill-opacity="0.9"/>
</svg>
